<?xml version="1.0" encoding="utf-8"?>
<!-- Generator: Adobe Illustrator 16.0.3, SVG Export Plug-In . SVG Version: 6.00 Build 0)  -->
<!DOCTYPE svg PUBLIC "-//W3C//DTD SVG 1.1//EN" "http://www.w3.org/Graphics/SVG/1.1/DTD/svg11.dtd">
<svg version="1.1" id="Ebene_1" xmlns="http://www.w3.org/2000/svg" xmlns:xlink="http://www.w3.org/1999/xlink" x="0px" y="0px"
	 width="401.691px" height="110px" viewBox="0 0 401.691 110" enable-background="new 0 0 401.691 110" xml:space="preserve">
<g>
	<defs>
		<rect id="SVGID_1_" x="10.63" y="16.78" width="380.62" height="92.795"/>
	</defs>
	<clipPath id="SVGID_2_">
		<use xlink:href="#SVGID_1_"  overflow="visible"/>
	</clipPath>
	<path clip-path="url(#SVGID_2_)" fill="#8EBAE5" d="M314.712,86.192h4.445v-9.323h2.376c1.791,0,2.563,1.051,2.625,2.779
		l0.123,4.229c0.031,0.862,0.124,1.696,0.556,2.314h4.815v-0.185c-0.833-0.434-0.957-1.637-0.987-3.951
		c-0.063-4.662-0.525-6.329-3.55-6.73v-0.062c2.5-0.524,3.674-2.5,3.674-5.434c0-3.767-2.223-5.681-5.866-5.681h-8.211V86.192z
		 M319.157,67.424h2.099c2.006,0,3.088,1.019,3.088,3.057c0,2.376-1.205,3.302-3.335,3.302h-1.852V67.424z"/>
	<path clip-path="url(#SVGID_2_)" fill="#8EBAE5" d="M249.175,64.151v15.373c0,5.896,3.427,7.1,7.038,7.1s7.039-1.48,7.039-7.1
		V64.151h-4.445v15.373c0,2.192-0.524,3.828-2.594,3.828c-2.067,0-2.593-1.636-2.593-3.828V64.151H249.175z"/>
</g>
<polygon fill="#8EBAE5" points="264.34,64.151 264.34,86.192 268.415,86.192 268.415,70.759 268.476,70.759 273.909,86.192 
	278.972,86.192 278.972,64.151 274.896,64.151 274.896,79.246 274.836,79.246 269.464,64.151 "/>
<rect x="280.115" y="64.151" fill="#8EBAE5" width="4.444" height="22.041"/>
<polygon fill="#8EBAE5" points="284.865,64.151 289.927,86.192 295.638,86.192 300.7,64.151 296.101,64.151 292.829,80.451 
	292.737,80.451 289.619,64.151 "/>
<polygon fill="#8EBAE5" points="301.097,64.151 301.097,86.192 313.723,86.192 313.723,82.551 305.541,82.551 305.541,76.622 
	312.951,76.622 312.951,72.98 305.541,72.98 305.541,67.794 313.413,67.794 313.413,64.151 "/>
<g>
	<defs>
		<rect id="SVGID_3_" x="10.63" y="16.78" width="380.62" height="92.795"/>
	</defs>
	<clipPath id="SVGID_4_">
		<use xlink:href="#SVGID_3_"  overflow="visible"/>
	</clipPath>
	<path clip-path="url(#SVGID_4_)" fill="#8EBAE5" d="M329.157,79.309v0.895c0,4.076,1.975,6.423,7.008,6.423
		c4.815,0,7.655-2.101,7.655-6.763c0-2.685-0.865-4.382-4.199-5.834l-3.426-1.48c-1.883-0.804-2.284-1.637-2.284-2.994
		c0-1.296,0.525-2.563,2.531-2.563c1.697,0,2.408,1.204,2.408,3.273h4.26v-0.618c0-4.229-2.872-5.927-6.823-5.927
		c-4.198,0-6.821,2.191-6.821,6.481c0,3.675,1.821,5.312,5.772,6.668c2.933,1.02,3.952,1.761,3.952,3.768
		c0,1.852-1.298,2.716-2.655,2.716c-2.347,0-2.933-1.327-2.933-3.396v-0.648H329.157z"/>
</g>
<rect x="344.401" y="64.151" fill="#8EBAE5" width="4.444" height="22.041"/>
<polygon fill="#8EBAE5" points="371.935,64.151 368.848,72.672 368.786,72.672 365.885,64.151 349.429,64.151 349.429,67.794 
	354.244,67.794 354.244,86.192 358.69,86.192 358.69,67.794 362.439,67.794 366.594,77.519 366.594,86.192 371.04,86.192 
	371.04,77.519 376.751,64.151 "/>
<g>
	<defs>
		<rect id="SVGID_5_" x="10.63" y="16.78" width="380.62" height="92.795"/>
	</defs>
	<clipPath id="SVGID_6_">
		<use xlink:href="#SVGID_5_"  overflow="visible"/>
	</clipPath>
	<path clip-path="url(#SVGID_6_)" fill="#00549F" d="M210.126,62.146h-0.282h-7.084v-2.495v-19.48v-0.163h7.069h0.015h4.995
		c3.275-0.001,6.1,2.12,7.021,4.931c0.854,2.605,0.124,5.434-1.802,7.449c0.256,0.693,0.506,1.236,0.743,1.859
		c0.535,1.233,1.024,2.466,1.559,3.683l1.753,4.217h-0.045h-7.424c0,0.004-0.06-0.178-0.119-0.253
		c-0.297-0.651-0.564-1.351-0.86-2.004l-1.797-4.262c-0.714-1.722-1.427-3.35-2.139-5.072c0.89-0.024,1.554,0.143,2.412-0.252
		c0.604-0.297,1.519-1.035,1.542-2.449c-0.023-0.701-0.218-1.232-0.681-1.785c-0.466-0.513-1.14-0.894-2.017-0.906
		c0,0-2.861-0.001-2.86,0V62.146z"/>
	<path clip-path="url(#SVGID_6_)" fill="#00549F" d="M287.062,40.008v22.139h-5.751h-1.615V53.12h-0.688H274.6h-0.062v9.027
		c-1.336,0-2.775-0.015-4.111,0h-3.254V45.13h-5.151v0.534v1.603v7.291v7.588h-0.06h-7.307V52.97v-0.356V45.13h-5.196v8.033v8.983
		h-7.587c-1.321-3.191-2.717-6.414-4.009-9.592c-0.149-0.668-0.297-1.337-0.49-1.99v11.582h-7.603
		c-1.507-3.504-2.955-6.938-4.457-10.494c-0.521-1.232-0.948-2.234-1.486-3.515l-0.074-0.168l-1.17-2.747l-1.676-3.923
		c-0.146-0.445-0.384-0.847-0.534-1.292h7.586c1.56,3.786,3.133,7.528,4.767,11.255l0.045,0.089c-0.06-0.431-0.194-0.98-0.269-1.395
		v-6.608c0.016-1.055,0-2.258,0-3.341h7.603c0.096,0.241,0.148,0.371,0.223,0.565c0.892,2.093,1.738,4.172,2.629,6.25l1.99,4.529
		c-0.045-0.476-0.149-0.935-0.209-1.395v-9.949h0.609h5.168h18.709h5.314v1.381v6.608h0.357h4.8v-7.989h3.842H287.062z"/>
</g>
<path fill="#8EBAE5" d="M308.426,53.805l2.141-9.954h0.062l2.141,9.954H308.426z M293.667,53.805l2.14-9.954h0.062l2.14,9.954
	H293.667z M313.357,40.005h-5.521l-4.62,17.452l-4.619-17.452h-5.521l-5.861,22.141h4.652l1.023-4.682h5.893l1.022,4.682h6.821
	l1.023-4.682h5.892l1.023,4.682h4.652L313.357,40.005z"/>
<g>
	<defs>
		<rect id="SVGID_7_" x="10.63" y="16.78" width="380.62" height="92.795"/>
	</defs>
	<clipPath id="SVGID_8_">
		<use xlink:href="#SVGID_7_"  overflow="visible"/>
	</clipPath>
	<path clip-path="url(#SVGID_8_)" fill="#8EBAE5" d="M332.517,47.561c0-3.21-0.462-7.872-6.822-7.872
		c-6.667,0-7.502,4.754-7.502,11.453c0,6.698,0.835,11.452,7.502,11.452c5.834,0,7.007-4.105,7.007-8.859h-4.444
		c0,4.754-1.173,5.587-2.778,5.587c-1.914,0-2.84-1.204-2.84-7.872c0-6.235,0.525-8.488,2.778-8.488
		c2.006,0,2.654,1.389,2.654,4.599H332.517z"/>
</g>
<polygon fill="#8EBAE5" points="333.58,62.146 338.044,62.146 338.044,52.318 343.254,52.318 343.254,62.146 347.719,62.146 
	347.719,40.008 343.254,40.008 343.254,48.474 338.044,48.474 338.044,40.008 333.58,40.008 "/>
<polygon fill="#8EBAE5" points="348.687,40.004 348.687,62.146 361.372,62.146 361.372,58.488 353.152,58.488 353.152,52.533 
	360.597,52.533 360.597,48.873 353.152,48.873 353.152,43.663 361.061,43.663 361.061,40.004 "/>
<polygon fill="#8EBAE5" points="362.034,40.008 362.034,62.146 366.128,62.146 366.128,46.643 366.188,46.643 371.646,62.146 
	376.731,62.146 376.731,40.008 372.639,40.008 372.639,55.17 372.576,55.17 367.182,40.008 "/>
<rect x="187.75" y="39.978" fill="#00549F" width="1.023" height="46.398"/>
<g>
	<defs>
		<rect id="SVGID_9_" x="10.63" y="16.78" width="380.62" height="92.795"/>
	</defs>
	<clipPath id="SVGID_10_">
		<use xlink:href="#SVGID_9_"  overflow="visible"/>
	</clipPath>
	<path clip-path="url(#SVGID_10_)" fill="#00549F" d="M97.481,86.364c-9.09-2.434-14.45-12.902-19.653-23.071
		c-0.942-1.841-1.916-3.746-2.889-5.548c-0.414-0.769-0.818-1.491-1.223-2.22l-3.891,5.592c0.859,1.608,1.713,3.269,2.575,4.953
		c3.691,7.215,7.671,14.967,13.27,20.294H97.481z"/>
	<path clip-path="url(#SVGID_10_)" fill="#00549F" d="M75.491,50.116c-3.17-5.387-6.662-10.138-10.718-10.138
		c-4.335,0-8.021,5.481-11.358,11.404c-1.218,2.16-2.435,4.474-3.723,6.924c-6.517,12.393-13.903,26.438-24.561,26.438v1.63
		c11.643,0,19.273-14.508,26.004-27.309c1.283-2.44,2.495-4.743,3.701-6.883c2.946-5.228,6.43-10.573,9.937-10.573
		c3.409,0,6.8,4.99,9.69,9.983L75.491,50.116z"/>
	<path clip-path="url(#SVGID_10_)" fill="#00549F" d="M75.841,53.909l1.087-0.558l-0.111-0.214
		c-0.091-0.173-0.183-0.355-0.275-0.528c-0.118-0.224-0.246-0.413-0.371-0.614l-0.757,1.089c0.014,0.028,0.036,0.056,0.05,0.084
		l0.123,0.243c0.081,0.154,0.152,0.306,0.233,0.459L75.841,53.909z M78.056,58.259l1.088-0.549l-0.234-0.456
		c-0.295-0.601-0.6-1.189-0.894-1.769l-0.021-0.041l-1.087,0.549l0.02,0.04c0.233,0.459,0.457,0.906,0.692,1.373L78.056,58.259z
		 M80.271,62.619l1.088-0.559l-0.031-0.051c-0.406-0.782-0.802-1.565-1.107-2.165l-0.02-0.041l-1.088,0.549l0.021,0.051
		c0.366,0.712,0.741,1.443,1.117,2.175L80.271,62.619z M82.587,66.938l1.067-0.591l-0.03-0.05c-0.355-0.64-0.732-1.331-1.158-2.134
		l-0.021-0.041l-1.036,0.548l-0.031,0.021l0.01,0.051c0.367,0.681,0.763,1.403,1.169,2.155L82.587,66.938z M85.067,71.176
		l1.038-0.641l-0.031-0.04c-0.397-0.65-0.803-1.321-1.23-2.053l0.01-0.011l-0.061-0.061l-1.046,0.61l0.03,0.05
		c0.406,0.691,0.823,1.403,1.26,2.104L85.067,71.176z M87.791,75.281l0.987-0.711l-0.031-0.041c-0.468-0.66-0.924-1.321-1.372-1.992
		l-0.019-0.04l-1.017,0.67l0.02,0.041c0.468,0.691,0.935,1.372,1.403,2.032L87.791,75.281z M90.872,79.144l0.904-0.803L91.745,78.3
		c-0.518-0.58-1.036-1.209-1.544-1.85l-0.031-0.041l-0.956,0.763l0.031,0.04c0.519,0.661,1.057,1.301,1.586,1.9L90.872,79.144z
		 M94.449,82.599l0.772-0.945l-0.041-0.03c-0.599-0.487-1.189-1.016-1.778-1.596l-0.041-0.03l-0.843,0.874l0.03,0.03
		c0.62,0.6,1.239,1.158,1.86,1.667L94.449,82.599z M98.686,85.282l0.509-1.108l-0.051-0.02c-0.682-0.326-1.372-0.702-2.053-1.14
		l-0.04-0.03l-0.631,0.985l-0.02,0.031l0.061,0.071l0.01-0.011c0.701,0.447,1.433,0.854,2.164,1.199L98.686,85.282z M102.492,86.354
		v-1.128c-0.386-0.072-0.771-0.161-1.153-0.27l-0.051-0.011l-0.325,1.179l0.051,0.01c0.332,0.092,0.674,0.153,1.015,0.22H102.492z"
		/>
	<path clip-path="url(#SVGID_10_)" fill="#8EBAE5" d="M74.217,79.854c0.458,0,0.829-0.369,0.829-0.827
		c0-0.457-0.371-0.827-0.829-0.827c-0.456,0-0.827,0.37-0.827,0.827C73.391,79.484,73.761,79.854,74.217,79.854 M72.632,84.898
		c0,0.455,0.371,0.826,0.827,0.826c0.459,0,0.829-0.371,0.829-0.826c0-0.458-0.37-0.828-0.829-0.828
		C73.003,84.07,72.632,84.44,72.632,84.898 M68.791,83.936c0,0.761,0.618,1.378,1.376,1.378c0.76,0,1.378-0.617,1.378-1.378
		s-0.618-1.378-1.378-1.378C69.408,82.558,68.791,83.175,68.791,83.936 M69.945,77.037c0.457,0,0.829-0.371,0.829-0.827
		c0-0.457-0.372-0.828-0.829-0.828c-0.456,0-0.828,0.371-0.828,0.828C69.117,76.666,69.489,77.037,69.945,77.037 M68.235,79.742
		c0,0.456,0.371,0.826,0.828,0.826s0.827-0.37,0.827-0.826c0-0.458-0.37-0.829-0.827-0.829S68.235,79.284,68.235,79.742
		 M67.108,72.513c-0.457,0-0.827,0.37-0.827,0.827s0.37,0.828,0.827,0.828c0.458,0,0.828-0.371,0.828-0.828
		S67.566,72.513,67.108,72.513 M66.629,71.026c0.458,0,0.828-0.371,0.828-0.828c0-0.456-0.37-0.828-0.828-0.828
		c-0.457,0-0.828,0.372-0.828,0.828C65.801,70.655,66.172,71.026,66.629,71.026 M66.256,85.523c0,0.455,0.371,0.826,0.829,0.826
		c0.455,0,0.826-0.371,0.826-0.826c0-0.458-0.371-0.828-0.826-0.828C66.627,84.695,66.256,85.065,66.256,85.523 M65.144,81.948
		c0,0.457,0.373,0.828,0.829,0.828c0.457,0,0.828-0.371,0.828-0.828s-0.371-0.827-0.828-0.827
		C65.517,81.121,65.144,81.491,65.144,81.948 M64.264,77.092c0,0.761,0.618,1.378,1.377,1.378c0.761,0,1.377-0.617,1.377-1.378
		c0-0.76-0.616-1.377-1.377-1.377C64.882,75.715,64.264,76.332,64.264,77.092 M61.906,85.486c0,0.457,0.372,0.827,0.828,0.827
		c0.458,0,0.83-0.37,0.83-0.827s-0.372-0.828-0.83-0.828C62.278,84.658,61.906,85.029,61.906,85.486 M63.355,77.089
		c0-0.457-0.371-0.829-0.829-0.829c-0.456,0-0.828,0.372-0.828,0.829c0,0.456,0.372,0.828,0.828,0.828
		C62.984,77.917,63.355,77.545,63.355,77.089 M60.832,83.302c0,0.457,0.371,0.827,0.829,0.827c0.457,0,0.828-0.37,0.828-0.827
		s-0.371-0.828-0.828-0.828C61.203,82.474,60.832,82.845,60.832,83.302 M59.924,81.387c0.457,0,0.829-0.371,0.829-0.829
		c0-0.456-0.372-0.826-0.829-0.826s-0.828,0.37-0.828,0.826C59.096,81.016,59.467,81.387,59.924,81.387 M56.653,83.041
		c0,0.76,0.616,1.376,1.377,1.376c0.761,0,1.377-0.616,1.377-1.376c0-0.762-0.616-1.379-1.377-1.379
		C57.27,81.662,56.653,82.279,56.653,83.041 M54.802,85.498c0,0.456,0.371,0.828,0.828,0.828c0.458,0,0.829-0.372,0.829-0.828
		c0-0.457-0.371-0.828-0.829-0.828C55.173,84.67,54.802,85.041,54.802,85.498 M50.271,86.364L69.84,58.238v-11.43h-9.373v14.783
		h-9.066v13.337h-9.095v8.975h-9.097v2.462H50.271z M70.969,66.705c0-0.761-0.616-1.378-1.377-1.378
		c-0.761,0-1.377,0.617-1.377,1.378s0.616,1.377,1.377,1.377C70.354,68.082,70.969,67.466,70.969,66.705 M71.212,69.59
		c0-0.456-0.372-0.827-0.829-0.827s-0.828,0.371-0.828,0.827c0,0.458,0.371,0.828,0.828,0.828S71.212,70.048,71.212,69.59
		 M71.804,72.114c0-0.458-0.371-0.83-0.828-0.83s-0.828,0.372-0.828,0.83c0,0.455,0.371,0.827,0.828,0.827
		S71.804,72.569,71.804,72.114 M73.146,80.568c-0.456,0-0.827,0.371-0.827,0.829c0,0.455,0.371,0.826,0.827,0.826
		c0.457,0,0.829-0.371,0.829-0.826C73.976,80.939,73.604,80.568,73.146,80.568 M75.439,75.039c0-0.761-0.618-1.378-1.378-1.378
		c-0.759,0-1.377,0.617-1.377,1.378s0.618,1.378,1.377,1.378C74.821,76.417,75.439,75.8,75.439,75.039 M76.237,84.67
		c-0.458,0-0.828,0.371-0.828,0.828c0,0.456,0.37,0.828,0.828,0.828c0.457,0,0.828-0.372,0.828-0.828
		C77.065,85.041,76.694,84.67,76.237,84.67 M77.517,79.657c0-0.458-0.371-0.829-0.828-0.829c-0.456,0-0.828,0.371-0.828,0.829
		c0,0.456,0.372,0.827,0.828,0.827C77.146,80.484,77.517,80.113,77.517,79.657 M79.15,82.612c0-0.456-0.37-0.828-0.827-0.828
		c-0.458,0-0.829,0.372-0.829,0.828c0,0.457,0.371,0.829,0.829,0.829C78.78,83.441,79.15,83.069,79.15,82.612 M82.254,85.453
		c0-0.456-0.371-0.828-0.829-0.828c-0.456,0-0.827,0.372-0.827,0.828c0,0.457,0.371,0.828,0.827,0.828
		C81.883,86.281,82.254,85.91,82.254,85.453"/>
</g>
<polygon fill="#CC071E" points="52.258,86.365 83.665,41.224 82.326,40.292 50.271,86.365 "/>
<g>
	<defs>
		<rect id="SVGID_11_" x="10.63" y="16.78" width="380.62" height="92.795"/>
	</defs>
	<clipPath id="SVGID_12_">
		<use xlink:href="#SVGID_11_"  overflow="visible"/>
	</clipPath>
	<path clip-path="url(#SVGID_12_)" fill="#00549F" d="M156.4,80.872v0.613h-0.02c-0.137-0.286-0.311-0.483-0.522-0.593
		c-0.212-0.11-0.416-0.164-0.614-0.164c-0.383,0-0.687,0.085-0.916,0.256s-0.403,0.392-0.521,0.66
		c-0.12,0.27-0.199,0.571-0.236,0.905c-0.037,0.335-0.056,0.662-0.056,0.981c0,1.004,0.141,1.718,0.425,2.144
		c0.282,0.427,0.704,0.64,1.263,0.64c0.225,0,0.441-0.062,0.65-0.184c0.207-0.123,0.383-0.287,0.527-0.491h0.02v0.726
		c0,0.286-0.058,0.524-0.174,0.712c-0.116,0.187-0.317,0.28-0.603,0.28c-0.089,0-0.173-0.013-0.251-0.041
		c-0.079-0.026-0.152-0.063-0.22-0.111c-0.143-0.103-0.215-0.243-0.215-0.42h-1.35c0,0.471,0.161,0.834,0.486,1.09
		c0.323,0.256,0.785,0.384,1.386,0.384c0.824,0,1.413-0.176,1.765-0.527c0.35-0.351,0.526-0.895,0.526-1.632v-5.228H156.4z
		 M154.954,82.861c0.016-0.256,0.052-0.46,0.107-0.613c0.054-0.153,0.129-0.265,0.225-0.332c0.095-0.069,0.221-0.103,0.379-0.103
		c0.279,0,0.471,0.141,0.578,0.419c0.105,0.279,0.158,0.754,0.158,1.422c0,0.232-0.012,0.445-0.036,0.64
		c-0.024,0.194-0.065,0.36-0.122,0.497c-0.059,0.136-0.138,0.243-0.236,0.321c-0.099,0.079-0.224,0.117-0.373,0.117
		c-0.151,0-0.271-0.038-0.363-0.117c-0.092-0.078-0.164-0.184-0.215-0.316c-0.051-0.133-0.086-0.285-0.102-0.456
		c-0.018-0.17-0.026-0.351-0.026-0.542C154.928,83.43,154.936,83.118,154.954,82.861 M148.47,86.376h1.411v-3.652
		c0-0.606,0.249-0.91,0.747-0.91c0.211,0,0.364,0.057,0.461,0.168c0.095,0.113,0.143,0.313,0.143,0.6v3.795h1.412v-4.082
		c0-0.552-0.122-0.951-0.364-1.196c-0.242-0.246-0.588-0.369-1.038-0.369c-0.307,0-0.58,0.064-0.818,0.19
		c-0.24,0.125-0.434,0.325-0.583,0.598h-0.021v-0.645h-1.35V86.376z M146.029,86.376h1.412v-5.504h-1.412V86.376z M146.029,80.196
		h1.412v-1.207h-1.412V80.196z M142.487,86.376h1.412v-3.305c0-0.184,0.031-0.34,0.092-0.466c0.061-0.125,0.143-0.228,0.246-0.306
		c0.102-0.079,0.214-0.135,0.337-0.169c0.123-0.034,0.246-0.051,0.368-0.051c0.075,0,0.149,0.002,0.22,0.005
		c0.072,0.003,0.145,0.008,0.22,0.015v-1.35c-0.041-0.007-0.084-0.014-0.128-0.017c-0.045-0.003-0.087-0.005-0.127-0.005
		c-0.294,0-0.543,0.08-0.747,0.241c-0.205,0.16-0.379,0.373-0.522,0.639h-0.02v-0.736h-1.351V86.376z M138.875,83v-0.214
		c0-0.131,0.011-0.26,0.036-0.39c0.023-0.13,0.062-0.248,0.117-0.353c0.055-0.106,0.128-0.191,0.22-0.256
		c0.092-0.064,0.21-0.098,0.353-0.098c0.144,0,0.261,0.029,0.353,0.087c0.092,0.059,0.164,0.144,0.215,0.257
		c0.051,0.111,0.087,0.247,0.107,0.408c0.021,0.16,0.034,0.347,0.041,0.558H138.875z M141.667,83.839v-0.317
		c0-0.422-0.028-0.806-0.082-1.15c-0.055-0.346-0.158-0.638-0.307-0.881c-0.15-0.241-0.357-0.429-0.619-0.562
		c-0.263-0.133-0.598-0.2-1.008-0.2c-0.477,0-0.859,0.079-1.145,0.236c-0.287,0.156-0.507,0.368-0.66,0.634
		c-0.154,0.266-0.256,0.57-0.307,0.91c-0.051,0.341-0.077,0.696-0.077,1.063c0,0.342,0.016,0.688,0.046,1.039
		c0.031,0.351,0.114,0.668,0.251,0.951c0.136,0.283,0.348,0.515,0.634,0.69c0.287,0.177,0.686,0.266,1.197,0.266
		c0.675,0,1.169-0.171,1.483-0.516c0.313-0.346,0.484-0.837,0.512-1.479h-1.269c-0.041,0.348-0.116,0.606-0.225,0.777
		c-0.109,0.171-0.283,0.256-0.521,0.256c-0.13,0-0.24-0.036-0.328-0.108c-0.089-0.07-0.16-0.165-0.215-0.285
		c-0.055-0.12-0.094-0.257-0.117-0.409c-0.025-0.154-0.036-0.313-0.036-0.477v-0.439H141.667z M134.027,83v-0.214
		c0-0.131,0.011-0.26,0.036-0.39c0.023-0.13,0.062-0.248,0.117-0.353c0.055-0.106,0.128-0.191,0.22-0.256
		c0.092-0.064,0.21-0.098,0.353-0.098c0.144,0,0.261,0.029,0.353,0.087c0.092,0.059,0.164,0.144,0.215,0.257
		c0.051,0.111,0.087,0.247,0.108,0.408c0.02,0.16,0.033,0.347,0.04,0.558H134.027z M136.82,83.839v-0.317
		c0-0.422-0.028-0.806-0.082-1.15c-0.055-0.346-0.158-0.638-0.307-0.881c-0.15-0.241-0.357-0.429-0.619-0.562
		c-0.263-0.133-0.598-0.2-1.008-0.2c-0.477,0-0.859,0.079-1.145,0.236c-0.287,0.156-0.507,0.368-0.66,0.634
		c-0.154,0.266-0.256,0.57-0.307,0.91c-0.051,0.341-0.077,0.696-0.077,1.063c0,0.342,0.016,0.688,0.046,1.039
		c0.031,0.351,0.114,0.668,0.251,0.951c0.136,0.283,0.348,0.515,0.634,0.69c0.287,0.177,0.686,0.266,1.197,0.266
		c0.675,0,1.169-0.171,1.483-0.516c0.313-0.346,0.484-0.837,0.512-1.479h-1.269c-0.04,0.348-0.116,0.606-0.225,0.777
		s-0.283,0.256-0.521,0.256c-0.13,0-0.24-0.036-0.328-0.108c-0.089-0.07-0.16-0.165-0.215-0.285
		c-0.055-0.12-0.094-0.257-0.117-0.409c-0.025-0.154-0.036-0.313-0.036-0.477v-0.439H136.82z M127.617,86.376h1.412v-3.652
		c0-0.606,0.248-0.91,0.746-0.91c0.211,0,0.365,0.057,0.461,0.168c0.095,0.113,0.143,0.313,0.143,0.6v3.795h1.412v-4.082
		c0-0.552-0.122-0.951-0.363-1.196c-0.243-0.246-0.589-0.369-1.039-0.369c-0.307,0-0.58,0.064-0.818,0.19
		c-0.24,0.125-0.434,0.325-0.583,0.598h-0.021v-0.645h-1.35V86.376z M125.176,86.376h1.412v-5.504h-1.412V86.376z M125.176,80.196
		h1.412v-1.207h-1.412V80.196z M122.773,80.872v0.613h-0.021c-0.137-0.286-0.311-0.483-0.521-0.593
		c-0.212-0.11-0.417-0.164-0.614-0.164c-0.383,0-0.688,0.085-0.916,0.256c-0.229,0.171-0.403,0.392-0.521,0.66
		c-0.12,0.27-0.199,0.571-0.236,0.905c-0.038,0.335-0.056,0.662-0.056,0.981c0,1.004,0.141,1.718,0.425,2.144
		c0.282,0.427,0.703,0.64,1.263,0.64c0.225,0,0.441-0.062,0.65-0.184c0.207-0.123,0.383-0.287,0.526-0.491h0.021v0.726
		c0,0.286-0.058,0.524-0.174,0.712c-0.117,0.187-0.317,0.28-0.604,0.28c-0.089,0-0.172-0.013-0.25-0.041
		c-0.079-0.026-0.153-0.063-0.22-0.111c-0.143-0.103-0.215-0.243-0.215-0.42h-1.35c0,0.471,0.161,0.834,0.486,1.09
		c0.323,0.256,0.785,0.384,1.386,0.384c0.824,0,1.413-0.176,1.764-0.527c0.351-0.351,0.527-0.895,0.527-1.632v-5.228H122.773z
		 M121.326,82.861c0.017-0.256,0.053-0.46,0.108-0.613c0.054-0.153,0.129-0.265,0.225-0.332c0.095-0.069,0.221-0.103,0.378-0.103
		c0.28,0,0.472,0.141,0.578,0.419c0.106,0.279,0.159,0.754,0.159,1.422c0,0.232-0.012,0.445-0.036,0.64
		c-0.024,0.194-0.065,0.36-0.123,0.497c-0.058,0.136-0.137,0.243-0.235,0.321c-0.099,0.079-0.224,0.117-0.373,0.117
		c-0.151,0-0.271-0.038-0.363-0.117c-0.093-0.078-0.164-0.184-0.215-0.316c-0.051-0.133-0.086-0.285-0.103-0.456
		c-0.017-0.17-0.025-0.351-0.025-0.542C121.3,83.43,121.309,83.118,121.326,82.861 M114.842,86.376h1.411v-3.652
		c0-0.606,0.249-0.91,0.747-0.91c0.211,0,0.364,0.057,0.46,0.168c0.096,0.113,0.144,0.313,0.144,0.6v3.795h1.411v-4.082
		c0-0.552-0.121-0.951-0.363-1.196c-0.242-0.246-0.588-0.369-1.038-0.369c-0.307,0-0.58,0.064-0.818,0.19
		c-0.24,0.125-0.434,0.325-0.584,0.598h-0.02v-0.645h-1.35V86.376z M109.879,79.071v7.305h4.184v-1.207h-2.711v-1.964h2.455v-1.207
		h-2.455v-1.72h2.609v-1.207H109.879z"/>
	<path clip-path="url(#SVGID_12_)" fill="#00549F" d="M145.527,74.776h1.411v-3.304c0-0.184,0.031-0.34,0.092-0.466
		c0.062-0.126,0.144-0.229,0.246-0.308c0.102-0.077,0.215-0.135,0.337-0.168c0.123-0.033,0.246-0.052,0.369-0.052
		c0.075,0,0.148,0.002,0.22,0.005c0.071,0.004,0.145,0.01,0.22,0.017v-1.352c-0.041-0.007-0.083-0.012-0.128-0.015
		c-0.044-0.003-0.087-0.005-0.128-0.005c-0.293,0-0.542,0.08-0.747,0.24c-0.204,0.16-0.378,0.374-0.522,0.64h-0.02v-0.737h-1.35
		V74.776z M143.088,74.776h1.412v-5.504h-1.412V74.776z M143.088,68.598h1.412v-1.207h-1.412V68.598z M139.326,71.248
		c0.013-0.239,0.046-0.443,0.097-0.614c0.051-0.171,0.126-0.304,0.225-0.399c0.099-0.095,0.237-0.143,0.415-0.143
		c0.286,0,0.484,0.15,0.593,0.45c0.108,0.299,0.164,0.795,0.164,1.482c0,0.689-0.056,1.185-0.164,1.483
		c-0.109,0.3-0.307,0.451-0.593,0.451c-0.178,0-0.316-0.048-0.415-0.145c-0.099-0.095-0.174-0.228-0.225-0.398
		c-0.051-0.17-0.084-0.375-0.097-0.613c-0.014-0.239-0.02-0.499-0.02-0.778C139.306,71.746,139.312,71.485,139.326,71.248
		 M137.996,73.294c0.068,0.36,0.184,0.665,0.348,0.91c0.164,0.245,0.385,0.428,0.665,0.547c0.279,0.12,0.63,0.176,1.054,0.169
		c0.402,0,0.741-0.063,1.018-0.189c0.276-0.126,0.499-0.31,0.67-0.552c0.169-0.243,0.292-0.545,0.368-0.906
		c0.075-0.36,0.112-0.776,0.112-1.248c0-0.478-0.034-0.897-0.102-1.263c-0.068-0.366-0.184-0.67-0.348-0.916
		c-0.163-0.245-0.385-0.427-0.665-0.547c-0.28-0.12-0.631-0.176-1.053-0.169c-0.403,0-0.742,0.063-1.018,0.188
		s-0.5,0.311-0.67,0.554c-0.171,0.241-0.294,0.544-0.369,0.904c-0.075,0.361-0.112,0.778-0.112,1.248
		C137.894,72.509,137.928,72.933,137.996,73.294 M135.413,73.212h-0.02l-0.788-3.939h-1.473l1.422,5.504h1.637l1.381-5.504h-1.412
		L135.413,73.212z M129.833,74.776h1.411v-3.304c0-0.184,0.031-0.34,0.093-0.466c0.061-0.126,0.143-0.229,0.245-0.308
		c0.102-0.077,0.215-0.135,0.338-0.168c0.122-0.033,0.245-0.052,0.368-0.052c0.075,0,0.148,0.002,0.22,0.005
		c0.071,0.004,0.144,0.01,0.22,0.017v-1.352c-0.041-0.007-0.084-0.012-0.128-0.015c-0.045-0.003-0.087-0.005-0.128-0.005
		c-0.294,0-0.542,0.08-0.747,0.24c-0.204,0.16-0.378,0.374-0.521,0.64h-0.021v-0.737h-1.35V74.776z M126.22,71.4v-0.215
		c0-0.13,0.012-0.259,0.036-0.388c0.024-0.13,0.063-0.248,0.118-0.354c0.054-0.105,0.128-0.191,0.22-0.256
		c0.092-0.064,0.21-0.097,0.353-0.097c0.143,0,0.261,0.028,0.353,0.087c0.092,0.058,0.163,0.143,0.215,0.255
		c0.051,0.113,0.086,0.249,0.107,0.41c0.02,0.16,0.034,0.345,0.041,0.557H126.22z M129.013,72.239v-0.316
		c0-0.423-0.027-0.806-0.082-1.151c-0.055-0.345-0.157-0.637-0.307-0.88c-0.15-0.242-0.357-0.43-0.618-0.562
		c-0.263-0.134-0.599-0.2-1.008-0.2c-0.478,0-0.859,0.079-1.146,0.234c-0.286,0.157-0.506,0.369-0.66,0.636
		c-0.153,0.266-0.255,0.568-0.307,0.91c-0.051,0.341-0.076,0.695-0.076,1.063c0,0.341,0.015,0.688,0.046,1.038
		c0.03,0.351,0.113,0.668,0.25,0.952c0.136,0.283,0.348,0.513,0.635,0.689c0.286,0.178,0.685,0.267,1.197,0.267
		c0.675,0,1.169-0.172,1.483-0.517c0.313-0.345,0.484-0.837,0.511-1.479h-1.268c-0.041,0.348-0.117,0.606-0.225,0.778
		c-0.11,0.171-0.284,0.256-0.522,0.256c-0.13,0-0.239-0.036-0.327-0.108c-0.089-0.071-0.161-0.167-0.215-0.286
		c-0.055-0.12-0.094-0.256-0.118-0.409s-0.036-0.312-0.036-0.476v-0.44H129.013z M120.142,72.977v0.194
		c0,0.266,0.03,0.506,0.092,0.721c0.061,0.215,0.169,0.399,0.322,0.553c0.154,0.153,0.36,0.271,0.619,0.353
		c0.259,0.082,0.59,0.123,0.992,0.123c0.294,0,0.566-0.036,0.819-0.107c0.252-0.072,0.468-0.179,0.649-0.322
		c0.181-0.144,0.323-0.324,0.425-0.543c0.102-0.218,0.153-0.47,0.153-0.757c0-0.416-0.092-0.744-0.276-0.986
		s-0.498-0.438-0.941-0.589l-0.849-0.286c-0.239-0.074-0.401-0.166-0.486-0.276c-0.085-0.109-0.128-0.232-0.128-0.368
		c0-0.197,0.067-0.346,0.2-0.445c0.133-0.099,0.288-0.147,0.465-0.147c0.232,0,0.394,0.065,0.486,0.199
		c0.092,0.133,0.138,0.343,0.138,0.629h1.269v-0.226c0-0.498-0.154-0.883-0.461-1.155c-0.307-0.273-0.78-0.409-1.422-0.409
		c-0.361,0-0.67,0.044-0.926,0.133c-0.255,0.089-0.465,0.208-0.629,0.358c-0.163,0.149-0.283,0.324-0.358,0.526
		c-0.074,0.201-0.112,0.414-0.112,0.64c0,0.389,0.099,0.708,0.296,0.957c0.198,0.248,0.491,0.441,0.88,0.577l0.992,0.358
		c0.136,0.054,0.256,0.128,0.358,0.22c0.103,0.093,0.154,0.228,0.154,0.404c0,0.218-0.065,0.381-0.194,0.491
		c-0.13,0.108-0.304,0.164-0.522,0.164c-0.239,0-0.422-0.074-0.547-0.221c-0.126-0.146-0.19-0.34-0.19-0.577v-0.185H120.142z
		 M116.757,71.4v-0.215c0-0.13,0.012-0.259,0.035-0.388c0.024-0.13,0.064-0.248,0.118-0.354c0.054-0.105,0.128-0.191,0.22-0.256
		c0.092-0.064,0.21-0.097,0.353-0.097s0.261,0.028,0.353,0.087c0.092,0.058,0.164,0.143,0.215,0.255
		c0.051,0.113,0.087,0.249,0.107,0.41c0.021,0.16,0.034,0.345,0.041,0.557H116.757z M119.549,72.239v-0.316
		c0-0.423-0.027-0.806-0.081-1.151c-0.055-0.345-0.157-0.637-0.307-0.88c-0.151-0.242-0.356-0.43-0.619-0.562
		c-0.263-0.134-0.599-0.2-1.008-0.2c-0.478,0-0.859,0.079-1.146,0.234c-0.286,0.157-0.506,0.369-0.659,0.636
		c-0.154,0.266-0.256,0.568-0.307,0.91c-0.052,0.341-0.077,0.695-0.077,1.063c0,0.341,0.015,0.688,0.046,1.038
		c0.031,0.351,0.115,0.668,0.251,0.952c0.136,0.283,0.347,0.513,0.634,0.689c0.286,0.178,0.685,0.267,1.197,0.267
		c0.675,0,1.169-0.172,1.483-0.517s0.484-0.837,0.512-1.479H118.2c-0.041,0.348-0.116,0.606-0.225,0.778
		c-0.109,0.171-0.283,0.256-0.522,0.256c-0.13,0-0.238-0.036-0.327-0.108c-0.089-0.071-0.161-0.167-0.215-0.286
		c-0.054-0.12-0.094-0.256-0.118-0.409c-0.023-0.153-0.035-0.312-0.035-0.476v-0.44H119.549z M111.353,68.557h0.696
		c0.682,0,1.023,0.338,1.023,1.013c0,0.396-0.095,0.678-0.287,0.845c-0.191,0.167-0.463,0.251-0.818,0.251h-0.614V68.557z
		 M109.879,74.776h1.473v-3.089h0.779c0.302,0,0.518,0.081,0.646,0.245s0.199,0.389,0.212,0.675l0.041,1.402
		c0.007,0.143,0.02,0.281,0.041,0.414s0.069,0.251,0.145,0.353h1.614v-0.061c-0.136-0.075-0.223-0.215-0.261-0.42
		c-0.037-0.204-0.059-0.501-0.066-0.891c-0.007-0.389-0.026-0.716-0.056-0.981c-0.031-0.267-0.087-0.486-0.169-0.66
		s-0.198-0.307-0.348-0.399c-0.15-0.092-0.351-0.154-0.603-0.188v-0.021c0.416-0.089,0.723-0.288,0.92-0.599
		c0.198-0.31,0.297-0.711,0.297-1.202c0-0.634-0.171-1.106-0.512-1.417c-0.34-0.31-0.818-0.465-1.432-0.465h-2.721V74.776z"/>
	<path clip-path="url(#SVGID_12_)" fill="#00549F" d="M171.004,59.069c0.092-0.304,0.291-0.454,0.598-0.454
		c0.314,0,0.517,0.15,0.609,0.454c0.092,0.305,0.138,0.756,0.138,1.356c0,0.6-0.046,1.051-0.138,1.355
		c-0.092,0.304-0.295,0.454-0.609,0.454c-0.307,0-0.506-0.15-0.598-0.454c-0.092-0.305-0.138-0.756-0.138-1.355
		C170.866,59.825,170.912,59.374,171.004,59.069 M172.41,63.177h1.351v-7.304h-1.412v2.312h-0.02
		c-0.15-0.218-0.319-0.381-0.507-0.491c-0.187-0.108-0.414-0.163-0.68-0.163c-0.579,0-1.006,0.228-1.279,0.681
		c-0.272,0.453-0.409,1.191-0.409,2.215s0.137,1.761,0.409,2.214c0.273,0.454,0.7,0.682,1.279,0.682c0.286,0,0.527-0.058,0.721-0.17
		c0.194-0.112,0.37-0.299,0.527-0.558h0.02V63.177z M164.406,63.177h1.412v-3.652c0-0.605,0.25-0.909,0.747-0.909
		c0.212,0,0.365,0.056,0.46,0.169c0.096,0.111,0.144,0.312,0.144,0.598v3.795h1.411v-4.081c0-0.553-0.12-0.952-0.363-1.197
		c-0.241-0.246-0.588-0.368-1.038-0.368c-0.307,0-0.579,0.063-0.819,0.189c-0.238,0.126-0.432,0.325-0.583,0.598h-0.02v-0.644
		h-1.351V63.177z M162.027,61.51c0,0.157-0.027,0.288-0.082,0.394c-0.054,0.105-0.124,0.192-0.21,0.262
		c-0.085,0.067-0.179,0.117-0.281,0.147c-0.102,0.031-0.2,0.046-0.297,0.046c-0.19,0-0.327-0.074-0.409-0.225
		s-0.123-0.33-0.123-0.542c0-0.246,0.062-0.44,0.185-0.583c0.122-0.144,0.327-0.246,0.613-0.307
		c0.089-0.021,0.189-0.054,0.297-0.098c0.109-0.044,0.212-0.104,0.307-0.179V61.51z M160.717,59.361v-0.153
		c0-0.218,0.056-0.393,0.164-0.521c0.11-0.13,0.273-0.194,0.491-0.194c0.24,0,0.408,0.059,0.507,0.179
		c0.099,0.12,0.148,0.285,0.148,0.496c0,0.184-0.041,0.325-0.123,0.42s-0.228,0.171-0.44,0.225l-0.798,0.215
		c-0.245,0.068-0.455,0.146-0.629,0.235s-0.317,0.199-0.429,0.332c-0.113,0.133-0.196,0.294-0.251,0.481
		c-0.054,0.187-0.082,0.41-0.082,0.67c0,0.184,0.025,0.371,0.072,0.558c0.048,0.188,0.122,0.356,0.225,0.506
		c0.102,0.151,0.239,0.273,0.409,0.368c0.171,0.096,0.378,0.145,0.624,0.145c0.342,0,0.619-0.049,0.834-0.145
		c0.215-0.095,0.404-0.286,0.567-0.572h0.021c0.02,0.096,0.043,0.192,0.066,0.291c0.025,0.1,0.061,0.192,0.108,0.281h1.35
		c-0.067-0.163-0.113-0.317-0.138-0.46c-0.023-0.143-0.036-0.345-0.036-0.603v-2.896c0-0.245-0.025-0.472-0.076-0.68
		c-0.052-0.208-0.149-0.388-0.292-0.537c-0.143-0.15-0.346-0.267-0.609-0.349c-0.262-0.081-0.601-0.122-1.018-0.122
		c-0.266,0-0.516,0.028-0.751,0.087c-0.236,0.059-0.44,0.153-0.614,0.286c-0.174,0.134-0.312,0.31-0.415,0.527
		c-0.102,0.218-0.153,0.484-0.153,0.798v0.133H160.717z M153.476,59.802v-0.215c0-0.13,0.011-0.259,0.035-0.389
		c0.024-0.131,0.063-0.248,0.118-0.354c0.054-0.104,0.128-0.191,0.22-0.256s0.21-0.097,0.353-0.097s0.261,0.028,0.353,0.087
		c0.092,0.058,0.164,0.143,0.215,0.256c0.051,0.112,0.087,0.248,0.107,0.409c0.021,0.161,0.034,0.346,0.041,0.558H153.476z
		 M156.268,60.64v-0.316c0-0.423-0.027-0.807-0.081-1.151c-0.056-0.344-0.158-0.637-0.307-0.879
		c-0.151-0.243-0.357-0.43-0.619-0.563c-0.263-0.133-0.599-0.199-1.008-0.199c-0.478,0-0.859,0.078-1.146,0.235
		c-0.286,0.156-0.506,0.368-0.659,0.634c-0.154,0.267-0.256,0.57-0.307,0.911c-0.052,0.34-0.077,0.695-0.077,1.063
		c0,0.341,0.015,0.688,0.046,1.039c0.031,0.351,0.113,0.668,0.251,0.951c0.136,0.283,0.347,0.514,0.634,0.69
		c0.286,0.177,0.685,0.267,1.197,0.267c0.675,0,1.169-0.173,1.483-0.518c0.313-0.345,0.484-0.837,0.512-1.478h-1.269
		c-0.041,0.348-0.117,0.605-0.225,0.776c-0.109,0.171-0.283,0.256-0.522,0.256c-0.13,0-0.239-0.035-0.327-0.106
		c-0.089-0.072-0.161-0.167-0.215-0.287c-0.055-0.119-0.094-0.256-0.118-0.409s-0.035-0.312-0.035-0.476v-0.44H156.268z
		 M151.444,59.658c0-0.654-0.166-1.174-0.496-1.556c-0.332-0.381-0.824-0.572-1.478-0.572c-0.328,0-0.629,0.044-0.901,0.133
		c-0.273,0.089-0.508,0.244-0.706,0.466c-0.198,0.222-0.351,0.519-0.46,0.89c-0.109,0.371-0.164,0.841-0.164,1.407
		c0,0.552,0.044,1.014,0.133,1.386c0.088,0.371,0.22,0.668,0.394,0.891c0.174,0.222,0.392,0.38,0.655,0.475
		c0.262,0.096,0.571,0.145,0.926,0.145c0.75,0,1.287-0.195,1.611-0.583c0.323-0.39,0.486-0.945,0.486-1.669h-1.35
		c0,0.45-0.056,0.778-0.164,0.982c-0.11,0.205-0.283,0.307-0.522,0.307c-0.157,0-0.285-0.035-0.383-0.106
		c-0.1-0.072-0.176-0.188-0.231-0.343c-0.055-0.157-0.092-0.356-0.112-0.599c-0.021-0.243-0.031-0.535-0.031-0.875
		c0-0.313,0.01-0.59,0.031-0.829c0.02-0.237,0.057-0.435,0.112-0.588c0.055-0.152,0.134-0.269,0.241-0.348
		c0.105-0.079,0.246-0.117,0.424-0.117c0.129,0,0.237,0.032,0.323,0.097c0.084,0.064,0.149,0.15,0.194,0.256
		c0.044,0.105,0.075,0.226,0.092,0.357c0.016,0.133,0.026,0.264,0.026,0.395H151.444z M142.252,63.177h1.412v-3.652
		c0-0.605,0.249-0.909,0.747-0.909c0.211,0,0.364,0.056,0.46,0.169c0.095,0.111,0.143,0.312,0.143,0.598v3.795h1.412v-4.081
		c0-0.553-0.122-0.952-0.363-1.197c-0.243-0.246-0.588-0.368-1.038-0.368c-0.307,0-0.58,0.063-0.819,0.189
		c-0.239,0.126-0.434,0.325-0.583,0.598h-0.02v-0.644h-1.351V63.177z M138.639,59.802v-0.215c0-0.13,0.011-0.259,0.036-0.389
		c0.023-0.131,0.062-0.248,0.117-0.354c0.055-0.104,0.128-0.191,0.22-0.256c0.092-0.064,0.21-0.097,0.353-0.097
		c0.144,0,0.261,0.028,0.353,0.087c0.092,0.058,0.164,0.143,0.215,0.256c0.051,0.112,0.087,0.248,0.108,0.409
		c0.02,0.161,0.033,0.346,0.04,0.558H138.639z M141.432,60.64v-0.316c0-0.423-0.028-0.807-0.082-1.151
		c-0.055-0.344-0.158-0.637-0.307-0.879c-0.15-0.243-0.357-0.43-0.619-0.563c-0.263-0.133-0.598-0.199-1.007-0.199
		c-0.478,0-0.86,0.078-1.146,0.235c-0.287,0.156-0.507,0.368-0.66,0.634c-0.154,0.267-0.256,0.57-0.307,0.911
		c-0.051,0.34-0.077,0.695-0.077,1.063c0,0.341,0.016,0.688,0.046,1.039c0.031,0.351,0.114,0.668,0.251,0.951
		c0.136,0.283,0.348,0.514,0.634,0.69c0.287,0.177,0.686,0.267,1.197,0.267c0.675,0,1.169-0.173,1.483-0.518
		c0.314-0.345,0.484-0.837,0.512-1.478h-1.269c-0.04,0.348-0.116,0.605-0.225,0.776c-0.109,0.171-0.283,0.256-0.521,0.256
		c-0.13,0-0.24-0.035-0.328-0.106c-0.089-0.072-0.16-0.167-0.215-0.287c-0.055-0.119-0.094-0.256-0.117-0.409
		c-0.025-0.153-0.036-0.312-0.036-0.476v-0.44H141.432z M134.947,63.177h1.412v-5.504h-1.412V63.177z M134.947,56.999h1.412v-1.207
		h-1.412V56.999z M134.105,59.658c0-0.654-0.166-1.174-0.496-1.556c-0.332-0.381-0.824-0.572-1.478-0.572
		c-0.328,0-0.628,0.044-0.901,0.133s-0.508,0.244-0.705,0.466c-0.199,0.222-0.352,0.519-0.461,0.89s-0.163,0.841-0.163,1.407
		c0,0.552,0.044,1.014,0.133,1.386c0.088,0.371,0.219,0.668,0.393,0.891c0.174,0.222,0.392,0.38,0.655,0.475
		c0.262,0.096,0.571,0.145,0.926,0.145c0.75,0,1.287-0.195,1.611-0.583c0.323-0.39,0.486-0.945,0.486-1.669h-1.35
		c0,0.45-0.056,0.778-0.164,0.982c-0.109,0.205-0.283,0.307-0.522,0.307c-0.157,0-0.285-0.035-0.383-0.106
		c-0.1-0.072-0.176-0.188-0.231-0.343c-0.055-0.157-0.092-0.356-0.112-0.599c-0.021-0.243-0.031-0.535-0.031-0.875
		c0-0.313,0.01-0.59,0.031-0.829c0.02-0.237,0.057-0.435,0.112-0.588c0.055-0.152,0.134-0.269,0.241-0.348
		c0.105-0.079,0.246-0.117,0.424-0.117c0.129,0,0.237,0.032,0.323,0.097c0.085,0.064,0.149,0.15,0.194,0.256
		c0.044,0.105,0.075,0.226,0.092,0.357c0.017,0.133,0.026,0.264,0.026,0.395H134.105z M125.234,61.377v0.194
		c0,0.266,0.03,0.507,0.092,0.722c0.061,0.214,0.168,0.398,0.322,0.552c0.153,0.153,0.359,0.271,0.619,0.354
		c0.259,0.082,0.589,0.123,0.992,0.123c0.293,0,0.566-0.036,0.819-0.108c0.251-0.071,0.468-0.179,0.649-0.322
		c0.18-0.143,0.322-0.324,0.425-0.542c0.102-0.218,0.153-0.471,0.153-0.757c0-0.417-0.092-0.745-0.276-0.987
		c-0.184-0.243-0.498-0.438-0.941-0.589l-0.849-0.286c-0.24-0.074-0.401-0.167-0.486-0.275c-0.086-0.11-0.128-0.232-0.128-0.369
		c0-0.197,0.066-0.345,0.199-0.445c0.133-0.099,0.288-0.147,0.466-0.147c0.231,0,0.394,0.066,0.486,0.199
		c0.092,0.134,0.138,0.343,0.138,0.63h1.268v-0.226c0-0.499-0.153-0.883-0.46-1.156c-0.307-0.272-0.782-0.409-1.422-0.409
		c-0.362,0-0.67,0.044-0.926,0.133s-0.465,0.208-0.629,0.358s-0.283,0.325-0.358,0.526c-0.076,0.202-0.112,0.415-0.112,0.64
		c0,0.39,0.098,0.708,0.296,0.956c0.198,0.249,0.491,0.442,0.88,0.578l0.992,0.358c0.136,0.055,0.256,0.128,0.358,0.22
		c0.103,0.092,0.154,0.227,0.154,0.404c0,0.218-0.066,0.382-0.195,0.49c-0.13,0.11-0.303,0.164-0.521,0.164
		c-0.24,0-0.422-0.073-0.548-0.22c-0.126-0.146-0.189-0.34-0.189-0.578v-0.184H125.234z M121.728,59.647
		c0.013-0.237,0.046-0.442,0.097-0.613c0.051-0.171,0.126-0.305,0.225-0.399c0.099-0.095,0.237-0.143,0.414-0.143
		c0.287,0,0.484,0.15,0.594,0.449c0.109,0.301,0.163,0.795,0.163,1.484c0,0.688-0.054,1.183-0.163,1.483
		c-0.11,0.3-0.307,0.449-0.594,0.449c-0.177,0-0.315-0.048-0.414-0.143c-0.099-0.095-0.174-0.228-0.225-0.399
		c-0.051-0.171-0.084-0.376-0.097-0.613c-0.014-0.238-0.021-0.498-0.021-0.777C121.707,60.146,121.714,59.886,121.728,59.647
		 M120.398,61.693c0.068,0.361,0.184,0.665,0.348,0.911c0.163,0.245,0.385,0.428,0.665,0.547c0.279,0.12,0.631,0.177,1.053,0.17
		c0.402,0,0.742-0.064,1.018-0.19c0.276-0.125,0.499-0.31,0.67-0.552c0.171-0.242,0.294-0.544,0.369-0.905
		c0.074-0.361,0.112-0.778,0.112-1.248c0-0.478-0.034-0.899-0.102-1.264c-0.069-0.365-0.184-0.67-0.348-0.915
		c-0.164-0.246-0.386-0.429-0.665-0.548s-0.631-0.177-1.054-0.169c-0.402,0-0.741,0.063-1.018,0.189
		c-0.276,0.126-0.499,0.311-0.67,0.552c-0.17,0.243-0.293,0.544-0.368,0.906c-0.075,0.361-0.112,0.777-0.112,1.248
		C120.296,60.909,120.329,61.333,120.398,61.693 M116.849,59.802v-0.215c0-0.13,0.012-0.259,0.036-0.389
		c0.023-0.131,0.063-0.248,0.118-0.354c0.054-0.104,0.127-0.191,0.219-0.256c0.093-0.064,0.21-0.097,0.353-0.097
		c0.144,0,0.261,0.028,0.353,0.087c0.092,0.058,0.164,0.143,0.215,0.256c0.051,0.112,0.087,0.248,0.108,0.409
		c0.02,0.161,0.033,0.346,0.04,0.558H116.849z M119.642,60.64v-0.316c0-0.423-0.028-0.807-0.082-1.151
		c-0.054-0.344-0.157-0.637-0.307-0.879c-0.15-0.243-0.356-0.43-0.619-0.563c-0.263-0.133-0.598-0.199-1.007-0.199
		c-0.478,0-0.86,0.078-1.146,0.235c-0.287,0.156-0.507,0.368-0.66,0.634c-0.154,0.267-0.256,0.57-0.307,0.911
		c-0.051,0.34-0.077,0.695-0.077,1.063c0,0.341,0.016,0.688,0.046,1.039c0.031,0.351,0.115,0.668,0.251,0.951
		c0.136,0.283,0.348,0.514,0.634,0.69c0.287,0.177,0.686,0.267,1.197,0.267c0.675,0,1.169-0.173,1.484-0.518
		c0.314-0.345,0.483-0.837,0.511-1.478h-1.269c-0.04,0.348-0.115,0.605-0.225,0.776c-0.109,0.171-0.283,0.256-0.521,0.256
		c-0.13,0-0.239-0.035-0.328-0.106c-0.089-0.072-0.16-0.167-0.214-0.287c-0.055-0.119-0.095-0.256-0.118-0.409
		c-0.024-0.153-0.036-0.312-0.036-0.476v-0.44H119.642z M114.534,58.042c0-0.744-0.177-1.315-0.532-1.714
		c-0.355-0.399-0.934-0.598-1.739-0.598c-0.471,0-0.862,0.079-1.177,0.235c-0.314,0.157-0.565,0.391-0.757,0.701
		c-0.191,0.31-0.325,0.698-0.404,1.161c-0.078,0.464-0.117,1.003-0.117,1.616c0,0.635,0.027,1.191,0.082,1.673
		c0.054,0.48,0.161,0.885,0.322,1.212c0.16,0.328,0.381,0.574,0.665,0.741c0.283,0.167,0.649,0.252,1.099,0.252
		c0.348,0,0.647-0.065,0.896-0.195c0.248-0.13,0.462-0.337,0.639-0.624h0.02v0.675h1.085v-3.938h-2.384v1.084h0.972v0.746
		c0,0.198-0.031,0.37-0.092,0.518c-0.061,0.146-0.138,0.268-0.23,0.363c-0.092,0.095-0.191,0.167-0.297,0.215
		c-0.105,0.048-0.202,0.07-0.291,0.07c-0.212,0-0.384-0.065-0.517-0.198c-0.133-0.134-0.235-0.324-0.307-0.573
		c-0.072-0.249-0.121-0.549-0.148-0.9c-0.028-0.351-0.041-0.749-0.041-1.191c0-0.914,0.079-1.568,0.235-1.964
		c0.157-0.396,0.412-0.595,0.767-0.595c0.151,0,0.279,0.039,0.384,0.118s0.192,0.177,0.261,0.297
		c0.068,0.119,0.118,0.252,0.148,0.399c0.031,0.146,0.046,0.284,0.046,0.414H114.534z"/>
	<path clip-path="url(#SVGID_12_)" fill="#00549F" d="M167.582,51.578h1.412v-7.304h-1.412V51.578z M165.169,49.91
		c0,0.157-0.027,0.289-0.082,0.394c-0.054,0.106-0.124,0.192-0.21,0.261c-0.085,0.069-0.179,0.118-0.281,0.148
		c-0.102,0.031-0.2,0.046-0.297,0.046c-0.19,0-0.327-0.074-0.409-0.225c-0.082-0.15-0.123-0.33-0.123-0.542
		c0-0.245,0.062-0.44,0.185-0.583c0.122-0.143,0.327-0.245,0.613-0.307c0.089-0.02,0.189-0.053,0.297-0.097
		c0.11-0.044,0.212-0.104,0.307-0.179V49.91z M163.86,47.762v-0.153c0-0.218,0.055-0.392,0.163-0.522
		c0.11-0.13,0.273-0.195,0.491-0.195c0.24,0,0.408,0.06,0.507,0.179c0.099,0.12,0.148,0.285,0.148,0.497
		c0,0.184-0.041,0.324-0.123,0.419c-0.082,0.095-0.228,0.171-0.44,0.225l-0.798,0.215c-0.245,0.069-0.455,0.146-0.629,0.235
		c-0.174,0.089-0.317,0.2-0.429,0.333c-0.113,0.133-0.196,0.293-0.251,0.481c-0.054,0.187-0.082,0.411-0.082,0.67
		c0,0.184,0.025,0.37,0.072,0.557c0.048,0.187,0.122,0.356,0.225,0.507c0.102,0.15,0.239,0.273,0.409,0.368
		c0.171,0.095,0.378,0.143,0.624,0.143c0.342,0,0.619-0.048,0.834-0.143c0.215-0.095,0.404-0.287,0.567-0.573h0.021
		c0.02,0.095,0.043,0.192,0.066,0.291c0.025,0.1,0.061,0.193,0.108,0.282h1.35c-0.067-0.164-0.113-0.317-0.138-0.461
		c-0.023-0.143-0.036-0.344-0.036-0.603v-2.895c0-0.246-0.025-0.473-0.076-0.681c-0.052-0.207-0.149-0.386-0.292-0.537
		c-0.143-0.15-0.346-0.266-0.609-0.347c-0.262-0.082-0.601-0.123-1.018-0.123c-0.266,0-0.516,0.028-0.751,0.087
		c-0.236,0.058-0.44,0.153-0.614,0.286c-0.174,0.133-0.312,0.309-0.415,0.527c-0.102,0.218-0.153,0.484-0.153,0.798v0.133H163.86z
		 M157.447,51.578h1.412v-3.652c0-0.607,0.25-0.911,0.747-0.911c0.212,0,0.365,0.056,0.46,0.169
		c0.096,0.113,0.143,0.312,0.143,0.598v3.796h1.412v-4.082c0-0.552-0.121-0.951-0.363-1.197c-0.241-0.245-0.588-0.368-1.038-0.368
		c-0.307,0-0.579,0.063-0.819,0.189c-0.238,0.126-0.432,0.325-0.583,0.599h-0.02v-0.645h-1.351V51.578z M153.718,48.048
		c0.015-0.238,0.046-0.443,0.098-0.613c0.051-0.171,0.127-0.304,0.225-0.399c0.099-0.095,0.237-0.144,0.414-0.144
		c0.286,0,0.485,0.151,0.593,0.451c0.11,0.299,0.164,0.794,0.164,1.483c0,0.688-0.054,1.184-0.164,1.483
		c-0.108,0.3-0.307,0.45-0.593,0.45c-0.177,0-0.315-0.048-0.414-0.143c-0.098-0.095-0.174-0.228-0.225-0.399
		c-0.052-0.171-0.083-0.375-0.098-0.614c-0.013-0.238-0.02-0.498-0.02-0.777C153.698,48.547,153.705,48.287,153.718,48.048
		 M152.389,50.094c0.068,0.362,0.184,0.665,0.347,0.911c0.164,0.245,0.386,0.428,0.665,0.547c0.281,0.12,0.632,0.176,1.054,0.169
		c0.403,0,0.742-0.063,1.018-0.189c0.276-0.126,0.5-0.31,0.67-0.553c0.171-0.242,0.294-0.544,0.368-0.905
		c0.076-0.361,0.113-0.777,0.113-1.248c0-0.478-0.034-0.898-0.103-1.263c-0.067-0.366-0.184-0.671-0.347-0.916
		c-0.164-0.246-0.385-0.428-0.665-0.547c-0.28-0.12-0.63-0.176-1.054-0.169c-0.402,0-0.742,0.063-1.018,0.189
		c-0.276,0.126-0.499,0.31-0.67,0.553c-0.17,0.242-0.293,0.544-0.368,0.905c-0.075,0.361-0.113,0.777-0.113,1.248
		C152.286,49.31,152.321,49.733,152.389,50.094 M150.006,51.578h1.412v-5.504h-1.412V51.578z M150.006,45.399h1.412v-1.207h-1.412
		V45.399z M147.102,46.074h-0.716v0.962h0.716v3.151c0,0.279,0.016,0.511,0.051,0.695c0.034,0.184,0.097,0.333,0.189,0.445
		c0.092,0.113,0.223,0.193,0.394,0.241c0.17,0.048,0.395,0.071,0.675,0.071c0.164,0,0.318-0.007,0.466-0.02
		c0.146-0.014,0.297-0.028,0.455-0.041v-0.982c-0.048,0.007-0.099,0.012-0.154,0.015c-0.055,0.003-0.109,0.005-0.163,0.005
		c-0.205,0-0.34-0.046-0.404-0.138c-0.066-0.092-0.098-0.247-0.098-0.465v-2.977h0.819v-0.962h-0.819v-1.575h-1.411V46.074z
		 M144.388,49.91c0,0.157-0.028,0.289-0.082,0.394c-0.055,0.106-0.125,0.192-0.21,0.261c-0.086,0.069-0.179,0.118-0.281,0.148
		c-0.103,0.031-0.202,0.046-0.297,0.046c-0.191,0-0.327-0.074-0.409-0.225c-0.082-0.15-0.123-0.33-0.123-0.542
		c0-0.245,0.062-0.44,0.184-0.583c0.123-0.143,0.328-0.245,0.614-0.307c0.088-0.02,0.187-0.053,0.297-0.097
		c0.108-0.044,0.21-0.104,0.307-0.179V49.91z M143.078,47.762v-0.153c0-0.218,0.054-0.392,0.164-0.522
		c0.108-0.13,0.272-0.195,0.491-0.195c0.238,0,0.407,0.06,0.506,0.179c0.099,0.12,0.149,0.285,0.149,0.497
		c0,0.184-0.041,0.324-0.123,0.419c-0.082,0.095-0.229,0.171-0.44,0.225l-0.798,0.215c-0.245,0.069-0.455,0.146-0.629,0.235
		c-0.174,0.089-0.317,0.2-0.43,0.333c-0.112,0.133-0.196,0.293-0.25,0.481c-0.056,0.187-0.082,0.411-0.082,0.67
		c0,0.184,0.023,0.37,0.071,0.557c0.047,0.187,0.123,0.356,0.225,0.507c0.103,0.15,0.239,0.273,0.41,0.368
		c0.169,0.095,0.378,0.143,0.624,0.143c0.34,0,0.619-0.048,0.833-0.143c0.215-0.095,0.405-0.287,0.568-0.573h0.021
		c0.02,0.095,0.042,0.192,0.066,0.291c0.024,0.1,0.059,0.193,0.108,0.282h1.35c-0.069-0.164-0.115-0.317-0.138-0.461
		c-0.025-0.143-0.036-0.344-0.036-0.603v-2.895c0-0.246-0.026-0.473-0.077-0.681c-0.051-0.207-0.148-0.386-0.291-0.537
		c-0.143-0.15-0.347-0.266-0.609-0.347c-0.263-0.082-0.603-0.123-1.018-0.123c-0.266,0-0.516,0.028-0.752,0.087
		c-0.235,0.058-0.44,0.153-0.614,0.286c-0.173,0.133-0.312,0.309-0.414,0.527c-0.102,0.218-0.153,0.484-0.153,0.798v0.133H143.078z
		 M138.906,46.074h-0.716v0.962h0.716v3.151c0,0.279,0.017,0.511,0.052,0.695c0.033,0.184,0.097,0.333,0.189,0.445
		c0.092,0.113,0.223,0.193,0.394,0.241c0.169,0.048,0.395,0.071,0.675,0.071c0.164,0,0.318-0.007,0.465-0.02
		c0.147-0.014,0.298-0.028,0.456-0.041v-0.982c-0.049,0.007-0.1,0.012-0.154,0.015c-0.055,0.003-0.109,0.005-0.164,0.005
		c-0.204,0-0.339-0.046-0.404-0.138c-0.065-0.092-0.097-0.247-0.097-0.465v-2.977h0.819v-0.962h-0.819v-1.575h-1.412V46.074z
		 M136.21,51.578h1.35v-5.504h-1.412v3.652c0,0.607-0.249,0.911-0.746,0.911c-0.212,0-0.366-0.057-0.461-0.169
		c-0.096-0.113-0.143-0.312-0.143-0.599v-3.795h-1.412v4.082c0,0.552,0.121,0.951,0.363,1.197c0.242,0.245,0.589,0.368,1.039,0.368
		c0.307,0,0.579-0.063,0.818-0.189c0.239-0.126,0.433-0.326,0.583-0.599h0.021V51.578z M129.761,47.47
		c0.092-0.303,0.294-0.455,0.608-0.455c0.307,0,0.507,0.152,0.599,0.455c0.092,0.304,0.138,0.755,0.138,1.356
		c0,0.6-0.046,1.052-0.138,1.355c-0.092,0.304-0.292,0.456-0.599,0.456c-0.314,0-0.516-0.152-0.608-0.456
		c-0.092-0.303-0.138-0.755-0.138-1.355C129.623,48.225,129.669,47.774,129.761,47.47 M128.211,53.378h1.412v-2.312h0.02
		c0.149,0.218,0.318,0.382,0.506,0.491c0.188,0.11,0.415,0.164,0.681,0.164c0.579,0,1.005-0.227,1.279-0.68
		c0.272-0.453,0.409-1.192,0.409-2.215s-0.137-1.762-0.409-2.215c-0.274-0.453-0.7-0.68-1.279-0.68
		c-0.287,0-0.527,0.056-0.721,0.169c-0.195,0.112-0.371,0.298-0.527,0.557h-0.021v-0.583h-1.35V53.378z M120.402,51.578h1.412
		v-3.622c0-0.327,0.067-0.565,0.2-0.716c0.133-0.15,0.312-0.225,0.537-0.225c0.197,0,0.338,0.062,0.424,0.184
		c0.085,0.123,0.128,0.3,0.128,0.532v3.847h1.412v-3.622c0-0.327,0.066-0.565,0.199-0.716c0.133-0.15,0.312-0.225,0.537-0.225
		c0.198,0,0.339,0.062,0.425,0.184c0.085,0.123,0.128,0.3,0.128,0.532v3.847h1.412v-4c0-0.532-0.112-0.939-0.333-1.223
		c-0.222-0.283-0.568-0.424-1.038-0.424c-0.335,0-0.623,0.073-0.865,0.22c-0.242,0.146-0.418,0.366-0.527,0.66h-0.02
		c-0.076-0.287-0.224-0.505-0.445-0.655c-0.222-0.15-0.496-0.225-0.824-0.225c-0.306,0-0.571,0.054-0.792,0.164
		c-0.222,0.109-0.422,0.289-0.599,0.542h-0.02v-0.563h-1.351V51.578z M116.673,48.048c0.014-0.238,0.047-0.443,0.098-0.613
		c0.051-0.171,0.125-0.304,0.225-0.399c0.098-0.095,0.236-0.144,0.414-0.144c0.286,0,0.484,0.151,0.593,0.451
		c0.109,0.299,0.164,0.794,0.164,1.483c0,0.688-0.055,1.184-0.164,1.483c-0.109,0.3-0.307,0.45-0.593,0.45
		c-0.178,0-0.316-0.048-0.414-0.143c-0.1-0.095-0.174-0.228-0.225-0.399c-0.051-0.171-0.084-0.375-0.098-0.614
		c-0.014-0.238-0.02-0.498-0.02-0.777C116.653,48.547,116.659,48.287,116.673,48.048 M115.344,50.094
		c0.067,0.362,0.184,0.665,0.347,0.911c0.164,0.245,0.385,0.428,0.665,0.547c0.28,0.12,0.631,0.176,1.054,0.169
		c0.402,0,0.742-0.063,1.018-0.189c0.276-0.126,0.499-0.31,0.67-0.553c0.17-0.242,0.293-0.544,0.368-0.905
		c0.075-0.361,0.113-0.777,0.113-1.248c0-0.478-0.035-0.898-0.103-1.263c-0.068-0.366-0.184-0.671-0.347-0.916
		c-0.164-0.246-0.386-0.428-0.665-0.547c-0.281-0.12-0.631-0.176-1.054-0.169c-0.403,0-0.742,0.063-1.018,0.189
		c-0.276,0.126-0.5,0.31-0.67,0.553c-0.171,0.242-0.294,0.544-0.368,0.905c-0.076,0.361-0.113,0.777-0.113,1.248
		C115.241,49.31,115.275,49.733,115.344,50.094 M114.473,46.739c0-0.266-0.018-0.55-0.056-0.854
		c-0.038-0.304-0.131-0.586-0.282-0.849c-0.15-0.263-0.376-0.479-0.68-0.65c-0.304-0.171-0.718-0.256-1.243-0.256
		c-0.552,0-0.992,0.094-1.32,0.282c-0.327,0.187-0.578,0.448-0.751,0.782c-0.174,0.335-0.287,0.735-0.338,1.202
		c-0.051,0.468-0.077,0.977-0.077,1.53c0,0.552,0.026,1.062,0.077,1.529c0.051,0.468,0.164,0.868,0.338,1.202
		c0.173,0.335,0.424,0.596,0.751,0.783c0.328,0.187,0.768,0.281,1.32,0.281c0.484,0,0.878-0.079,1.182-0.235
		c0.304-0.157,0.539-0.371,0.706-0.64c0.166-0.269,0.281-0.581,0.342-0.936c0.062-0.355,0.092-0.729,0.092-1.125h-1.473
		c0,0.396-0.023,0.714-0.071,0.957c-0.048,0.242-0.113,0.429-0.195,0.562c-0.082,0.133-0.179,0.222-0.291,0.266
		c-0.113,0.044-0.234,0.067-0.363,0.067c-0.157,0-0.295-0.033-0.415-0.098c-0.119-0.064-0.218-0.191-0.296-0.378
		c-0.079-0.187-0.137-0.452-0.174-0.793c-0.038-0.341-0.057-0.788-0.057-1.34c0-0.519,0.014-0.957,0.041-1.315
		c0.028-0.358,0.075-0.647,0.144-0.869c0.068-0.222,0.161-0.382,0.281-0.481c0.12-0.099,0.271-0.148,0.455-0.148
		c0.335,0,0.565,0.12,0.691,0.363c0.125,0.242,0.189,0.629,0.189,1.161H114.473z"/>
</g>
</svg>
